<mxfile host="app.diagrams.net" modified="2023-04-28T10:24:29.861Z" agent="Mozilla/5.0 (Windows NT 10.0; Win64; x64) AppleWebKit/537.36 (KHTML, like Gecko) Chrome/112.0.0.0 Safari/537.36" version="21.2.1" etag="_jC_28vlN8bDLA7q7f7q" type="device">
  <diagram id="5hkFPF1zSFTnf47ttGf4" name="Страница 1">
    <mxGraphModel dx="989" dy="527" grid="1" gridSize="10" guides="1" tooltips="1" connect="1" arrows="1" fold="1" page="1" pageScale="1" pageWidth="827" pageHeight="1169" math="0" shadow="0">
      <root>
        <mxCell id="0" />
        <mxCell id="1" parent="0" />
        <mxCell id="ToeRxbLJHJDghRN0Vl6Y-1" value="" style="shape=umlActor;verticalLabelPosition=bottom;verticalAlign=top;html=1;outlineConnect=0;" vertex="1" parent="1">
          <mxGeometry x="135" y="70" width="30" height="60" as="geometry" />
        </mxCell>
        <mxCell id="ToeRxbLJHJDghRN0Vl6Y-2" value="ПО СУС" style="shape=umlLifeline;perimeter=lifelinePerimeter;whiteSpace=wrap;html=1;container=1;dropTarget=0;collapsible=0;recursiveResize=0;outlineConnect=0;portConstraint=eastwest;newEdgeStyle={&quot;edgeStyle&quot;:&quot;elbowEdgeStyle&quot;,&quot;elbow&quot;:&quot;vertical&quot;,&quot;curved&quot;:0,&quot;rounded&quot;:0};" vertex="1" parent="1">
          <mxGeometry x="350" y="140" width="100" height="1020" as="geometry" />
        </mxCell>
        <mxCell id="ToeRxbLJHJDghRN0Vl6Y-7" value="" style="html=1;points=[];perimeter=orthogonalPerimeter;outlineConnect=0;targetShapes=umlLifeline;portConstraint=eastwest;newEdgeStyle={&quot;edgeStyle&quot;:&quot;elbowEdgeStyle&quot;,&quot;elbow&quot;:&quot;vertical&quot;,&quot;curved&quot;:0,&quot;rounded&quot;:0};" vertex="1" parent="ToeRxbLJHJDghRN0Vl6Y-2">
          <mxGeometry x="45" y="80" width="10" height="90" as="geometry" />
        </mxCell>
        <mxCell id="ToeRxbLJHJDghRN0Vl6Y-17" value="" style="html=1;points=[];perimeter=orthogonalPerimeter;outlineConnect=0;targetShapes=umlLifeline;portConstraint=eastwest;newEdgeStyle={&quot;edgeStyle&quot;:&quot;elbowEdgeStyle&quot;,&quot;elbow&quot;:&quot;vertical&quot;,&quot;curved&quot;:0,&quot;rounded&quot;:0};" vertex="1" parent="ToeRxbLJHJDghRN0Vl6Y-2">
          <mxGeometry x="45" y="200" width="10" height="150" as="geometry" />
        </mxCell>
        <mxCell id="ToeRxbLJHJDghRN0Vl6Y-20" value="обновление данных&lt;br&gt;модели" style="endArrow=classic;html=1;rounded=0;" edge="1" parent="ToeRxbLJHJDghRN0Vl6Y-2" source="ToeRxbLJHJDghRN0Vl6Y-17" target="ToeRxbLJHJDghRN0Vl6Y-17">
          <mxGeometry x="-0.1" y="50" width="50" height="50" relative="1" as="geometry">
            <mxPoint x="80" y="280" as="sourcePoint" />
            <mxPoint x="60" y="240" as="targetPoint" />
            <Array as="points">
              <mxPoint x="70" y="210" />
              <mxPoint x="90" y="210" />
              <mxPoint x="90" y="240" />
              <mxPoint x="70" y="240" />
            </Array>
            <mxPoint as="offset" />
          </mxGeometry>
        </mxCell>
        <mxCell id="ToeRxbLJHJDghRN0Vl6Y-41" value="" style="html=1;points=[];perimeter=orthogonalPerimeter;outlineConnect=0;targetShapes=umlLifeline;portConstraint=eastwest;newEdgeStyle={&quot;edgeStyle&quot;:&quot;elbowEdgeStyle&quot;,&quot;elbow&quot;:&quot;vertical&quot;,&quot;curved&quot;:0,&quot;rounded&quot;:0};" vertex="1" parent="ToeRxbLJHJDghRN0Vl6Y-2">
          <mxGeometry x="45" y="390" width="10" height="90" as="geometry" />
        </mxCell>
        <mxCell id="ToeRxbLJHJDghRN0Vl6Y-42" value="" style="html=1;points=[];perimeter=orthogonalPerimeter;outlineConnect=0;targetShapes=umlLifeline;portConstraint=eastwest;newEdgeStyle={&quot;edgeStyle&quot;:&quot;elbowEdgeStyle&quot;,&quot;elbow&quot;:&quot;vertical&quot;,&quot;curved&quot;:0,&quot;rounded&quot;:0};" vertex="1" parent="ToeRxbLJHJDghRN0Vl6Y-2">
          <mxGeometry x="45" y="510" width="10" height="150" as="geometry" />
        </mxCell>
        <mxCell id="ToeRxbLJHJDghRN0Vl6Y-49" value="" style="endArrow=classic;html=1;rounded=0;" edge="1" parent="ToeRxbLJHJDghRN0Vl6Y-2" source="ToeRxbLJHJDghRN0Vl6Y-42" target="ToeRxbLJHJDghRN0Vl6Y-42">
          <mxGeometry x="0.3" y="245" width="50" height="50" relative="1" as="geometry">
            <mxPoint x="65" y="220" as="sourcePoint" />
            <mxPoint x="65" y="250" as="targetPoint" />
            <Array as="points">
              <mxPoint x="70" y="530" />
              <mxPoint x="80" y="530" />
              <mxPoint x="80" y="560" />
              <mxPoint x="60" y="560" />
            </Array>
            <mxPoint x="50" y="-5" as="offset" />
          </mxGeometry>
        </mxCell>
        <mxCell id="ToeRxbLJHJDghRN0Vl6Y-50" value="обновление&lt;br&gt;данных&lt;br&gt;модели" style="edgeLabel;html=1;align=center;verticalAlign=middle;resizable=0;points=[];" vertex="1" connectable="0" parent="ToeRxbLJHJDghRN0Vl6Y-49">
          <mxGeometry x="-0.2071" y="1" relative="1" as="geometry">
            <mxPoint x="19" as="offset" />
          </mxGeometry>
        </mxCell>
        <mxCell id="ToeRxbLJHJDghRN0Vl6Y-54" value="" style="html=1;points=[];perimeter=orthogonalPerimeter;outlineConnect=0;targetShapes=umlLifeline;portConstraint=eastwest;newEdgeStyle={&quot;edgeStyle&quot;:&quot;elbowEdgeStyle&quot;,&quot;elbow&quot;:&quot;vertical&quot;,&quot;curved&quot;:0,&quot;rounded&quot;:0};" vertex="1" parent="ToeRxbLJHJDghRN0Vl6Y-2">
          <mxGeometry x="45" y="710" width="10" height="170" as="geometry" />
        </mxCell>
        <mxCell id="ToeRxbLJHJDghRN0Vl6Y-58" value="расчет остатков&lt;br&gt;сервисом Warehouse" style="endArrow=classic;html=1;rounded=0;" edge="1" parent="ToeRxbLJHJDghRN0Vl6Y-2" source="ToeRxbLJHJDghRN0Vl6Y-54" target="ToeRxbLJHJDghRN0Vl6Y-54">
          <mxGeometry y="60" width="50" height="50" relative="1" as="geometry">
            <mxPoint x="110" y="820" as="sourcePoint" />
            <mxPoint x="110" y="840" as="targetPoint" />
            <Array as="points">
              <mxPoint x="80" y="810" />
              <mxPoint x="80" y="820" />
              <mxPoint x="80" y="830" />
            </Array>
            <mxPoint as="offset" />
          </mxGeometry>
        </mxCell>
        <mxCell id="ToeRxbLJHJDghRN0Vl6Y-64" value="" style="html=1;points=[];perimeter=orthogonalPerimeter;outlineConnect=0;targetShapes=umlLifeline;portConstraint=eastwest;newEdgeStyle={&quot;edgeStyle&quot;:&quot;elbowEdgeStyle&quot;,&quot;elbow&quot;:&quot;vertical&quot;,&quot;curved&quot;:0,&quot;rounded&quot;:0};" vertex="1" parent="ToeRxbLJHJDghRN0Vl6Y-2">
          <mxGeometry x="45" y="890" width="10" height="100" as="geometry" />
        </mxCell>
        <mxCell id="ToeRxbLJHJDghRN0Vl6Y-66" value="добавление&lt;br&gt;бизнес-процесса&lt;br&gt;в модель" style="endArrow=classic;html=1;rounded=0;" edge="1" parent="ToeRxbLJHJDghRN0Vl6Y-2" source="ToeRxbLJHJDghRN0Vl6Y-64" target="ToeRxbLJHJDghRN0Vl6Y-64">
          <mxGeometry x="-0.125" y="40" width="50" height="50" relative="1" as="geometry">
            <mxPoint x="65" y="820" as="sourcePoint" />
            <mxPoint x="65" y="840" as="targetPoint" />
            <Array as="points">
              <mxPoint x="80" y="910" />
              <mxPoint x="80" y="920" />
              <mxPoint x="80" y="940" />
            </Array>
            <mxPoint as="offset" />
          </mxGeometry>
        </mxCell>
        <mxCell id="ToeRxbLJHJDghRN0Vl6Y-3" value="Заведующий выдачей&lt;br style=&quot;border-color: var(--border-color);&quot;&gt;&lt;span style=&quot;&quot;&gt;спецодежды&lt;/span&gt;" style="shape=umlLifeline;perimeter=lifelinePerimeter;whiteSpace=wrap;html=1;container=1;dropTarget=0;collapsible=0;recursiveResize=0;outlineConnect=0;portConstraint=eastwest;newEdgeStyle={&quot;edgeStyle&quot;:&quot;elbowEdgeStyle&quot;,&quot;elbow&quot;:&quot;vertical&quot;,&quot;curved&quot;:0,&quot;rounded&quot;:0};" vertex="1" parent="1">
          <mxGeometry x="100" y="140" width="100" height="1020" as="geometry" />
        </mxCell>
        <mxCell id="ToeRxbLJHJDghRN0Vl6Y-14" value="" style="html=1;points=[];perimeter=orthogonalPerimeter;outlineConnect=0;targetShapes=umlLifeline;portConstraint=eastwest;newEdgeStyle={&quot;edgeStyle&quot;:&quot;elbowEdgeStyle&quot;,&quot;elbow&quot;:&quot;vertical&quot;,&quot;curved&quot;:0,&quot;rounded&quot;:0};" vertex="1" parent="ToeRxbLJHJDghRN0Vl6Y-3">
          <mxGeometry x="45" y="160" width="10" height="50" as="geometry" />
        </mxCell>
        <mxCell id="ToeRxbLJHJDghRN0Vl6Y-28" value="" style="html=1;points=[];perimeter=orthogonalPerimeter;outlineConnect=0;targetShapes=umlLifeline;portConstraint=eastwest;newEdgeStyle={&quot;edgeStyle&quot;:&quot;elbowEdgeStyle&quot;,&quot;elbow&quot;:&quot;vertical&quot;,&quot;curved&quot;:0,&quot;rounded&quot;:0};" vertex="1" parent="ToeRxbLJHJDghRN0Vl6Y-3">
          <mxGeometry x="45" y="330" width="10" height="40" as="geometry" />
        </mxCell>
        <mxCell id="ToeRxbLJHJDghRN0Vl6Y-35" value="" style="html=1;points=[];perimeter=orthogonalPerimeter;outlineConnect=0;targetShapes=umlLifeline;portConstraint=eastwest;newEdgeStyle={&quot;edgeStyle&quot;:&quot;elbowEdgeStyle&quot;,&quot;elbow&quot;:&quot;vertical&quot;,&quot;curved&quot;:0,&quot;rounded&quot;:0};" vertex="1" parent="ToeRxbLJHJDghRN0Vl6Y-3">
          <mxGeometry x="45" y="470" width="10" height="50" as="geometry" />
        </mxCell>
        <mxCell id="ToeRxbLJHJDghRN0Vl6Y-36" value="" style="html=1;points=[];perimeter=orthogonalPerimeter;outlineConnect=0;targetShapes=umlLifeline;portConstraint=eastwest;newEdgeStyle={&quot;edgeStyle&quot;:&quot;elbowEdgeStyle&quot;,&quot;elbow&quot;:&quot;vertical&quot;,&quot;curved&quot;:0,&quot;rounded&quot;:0};" vertex="1" parent="ToeRxbLJHJDghRN0Vl6Y-3">
          <mxGeometry x="45" y="630" width="10" height="40" as="geometry" />
        </mxCell>
        <mxCell id="ToeRxbLJHJDghRN0Vl6Y-37" value="получение данных о&lt;br&gt;спецодежде, сотрудниках,&lt;br&gt;поставщиках" style="edgeStyle=elbowEdgeStyle;rounded=0;orthogonalLoop=1;jettySize=auto;html=1;elbow=vertical;curved=0;" edge="1" parent="ToeRxbLJHJDghRN0Vl6Y-3">
          <mxGeometry relative="1" as="geometry">
            <mxPoint x="50" y="410" as="sourcePoint" />
            <mxPoint x="295" y="410" as="targetPoint" />
            <Array as="points">
              <mxPoint x="250" y="410" />
            </Array>
          </mxGeometry>
        </mxCell>
        <mxCell id="ToeRxbLJHJDghRN0Vl6Y-38" value="Представление данных бизнес процесса" style="html=1;verticalAlign=bottom;endArrow=open;dashed=1;endSize=8;edgeStyle=elbowEdgeStyle;elbow=vertical;curved=0;rounded=0;" edge="1" parent="ToeRxbLJHJDghRN0Vl6Y-3" target="ToeRxbLJHJDghRN0Vl6Y-35">
          <mxGeometry x="-0.0417" y="20" relative="1" as="geometry">
            <mxPoint x="295" y="470" as="sourcePoint" />
            <mxPoint x="65" y="450" as="targetPoint" />
            <Array as="points">
              <mxPoint x="270" y="470" />
              <mxPoint x="250" y="450" />
            </Array>
            <mxPoint as="offset" />
          </mxGeometry>
        </mxCell>
        <mxCell id="ToeRxbLJHJDghRN0Vl6Y-39" value="редактирование, удаление данных&lt;br&gt;о сущностях" style="edgeStyle=elbowEdgeStyle;rounded=0;orthogonalLoop=1;jettySize=auto;html=1;elbow=vertical;curved=0;" edge="1" parent="ToeRxbLJHJDghRN0Vl6Y-3" source="ToeRxbLJHJDghRN0Vl6Y-35">
          <mxGeometry relative="1" as="geometry">
            <mxPoint x="295" y="515" as="targetPoint" />
          </mxGeometry>
        </mxCell>
        <mxCell id="ToeRxbLJHJDghRN0Vl6Y-40" value="Представление данных сущности" style="html=1;verticalAlign=bottom;endArrow=open;dashed=1;endSize=8;edgeStyle=elbowEdgeStyle;elbow=vertical;curved=0;rounded=0;" edge="1" parent="ToeRxbLJHJDghRN0Vl6Y-3" target="ToeRxbLJHJDghRN0Vl6Y-36">
          <mxGeometry x="-0.0429" y="20" relative="1" as="geometry">
            <mxPoint x="295" y="650" as="sourcePoint" />
            <mxPoint x="70" y="650" as="targetPoint" />
            <Array as="points">
              <mxPoint x="225" y="650" />
              <mxPoint x="205" y="630" />
            </Array>
            <mxPoint as="offset" />
          </mxGeometry>
        </mxCell>
        <mxCell id="ToeRxbLJHJDghRN0Vl6Y-60" value="" style="html=1;points=[];perimeter=orthogonalPerimeter;outlineConnect=0;targetShapes=umlLifeline;portConstraint=eastwest;newEdgeStyle={&quot;edgeStyle&quot;:&quot;elbowEdgeStyle&quot;,&quot;elbow&quot;:&quot;vertical&quot;,&quot;curved&quot;:0,&quot;rounded&quot;:0};" vertex="1" parent="ToeRxbLJHJDghRN0Vl6Y-3">
          <mxGeometry x="45" y="850" width="10" height="140" as="geometry" />
        </mxCell>
        <mxCell id="ToeRxbLJHJDghRN0Vl6Y-4" value="БД" style="shape=umlLifeline;perimeter=lifelinePerimeter;whiteSpace=wrap;html=1;container=1;dropTarget=0;collapsible=0;recursiveResize=0;outlineConnect=0;portConstraint=eastwest;newEdgeStyle={&quot;edgeStyle&quot;:&quot;elbowEdgeStyle&quot;,&quot;elbow&quot;:&quot;vertical&quot;,&quot;curved&quot;:0,&quot;rounded&quot;:0};" vertex="1" parent="1">
          <mxGeometry x="600" y="140" width="100" height="1020" as="geometry" />
        </mxCell>
        <mxCell id="ToeRxbLJHJDghRN0Vl6Y-9" value="" style="html=1;points=[];perimeter=orthogonalPerimeter;outlineConnect=0;targetShapes=umlLifeline;portConstraint=eastwest;newEdgeStyle={&quot;edgeStyle&quot;:&quot;elbowEdgeStyle&quot;,&quot;elbow&quot;:&quot;vertical&quot;,&quot;curved&quot;:0,&quot;rounded&quot;:0};" vertex="1" parent="ToeRxbLJHJDghRN0Vl6Y-4">
          <mxGeometry x="45" y="110" width="10" height="50" as="geometry" />
        </mxCell>
        <mxCell id="ToeRxbLJHJDghRN0Vl6Y-21" value="" style="html=1;points=[];perimeter=orthogonalPerimeter;outlineConnect=0;targetShapes=umlLifeline;portConstraint=eastwest;newEdgeStyle={&quot;edgeStyle&quot;:&quot;elbowEdgeStyle&quot;,&quot;elbow&quot;:&quot;vertical&quot;,&quot;curved&quot;:0,&quot;rounded&quot;:0};" vertex="1" parent="ToeRxbLJHJDghRN0Vl6Y-4">
          <mxGeometry x="45" y="260" width="10" height="40" as="geometry" />
        </mxCell>
        <mxCell id="ToeRxbLJHJDghRN0Vl6Y-24" value="" style="html=1;points=[];perimeter=orthogonalPerimeter;outlineConnect=0;targetShapes=umlLifeline;portConstraint=eastwest;newEdgeStyle={&quot;edgeStyle&quot;:&quot;elbowEdgeStyle&quot;,&quot;elbow&quot;:&quot;vertical&quot;,&quot;curved&quot;:0,&quot;rounded&quot;:0};" vertex="1" parent="ToeRxbLJHJDghRN0Vl6Y-4">
          <mxGeometry x="45" y="310" width="10" height="40" as="geometry" />
        </mxCell>
        <mxCell id="ToeRxbLJHJDghRN0Vl6Y-43" value="" style="html=1;points=[];perimeter=orthogonalPerimeter;outlineConnect=0;targetShapes=umlLifeline;portConstraint=eastwest;newEdgeStyle={&quot;edgeStyle&quot;:&quot;elbowEdgeStyle&quot;,&quot;elbow&quot;:&quot;vertical&quot;,&quot;curved&quot;:0,&quot;rounded&quot;:0};" vertex="1" parent="ToeRxbLJHJDghRN0Vl6Y-4">
          <mxGeometry x="45" y="560" width="10" height="40" as="geometry" />
        </mxCell>
        <mxCell id="ToeRxbLJHJDghRN0Vl6Y-44" value="" style="html=1;points=[];perimeter=orthogonalPerimeter;outlineConnect=0;targetShapes=umlLifeline;portConstraint=eastwest;newEdgeStyle={&quot;edgeStyle&quot;:&quot;elbowEdgeStyle&quot;,&quot;elbow&quot;:&quot;vertical&quot;,&quot;curved&quot;:0,&quot;rounded&quot;:0};" vertex="1" parent="ToeRxbLJHJDghRN0Vl6Y-4">
          <mxGeometry x="45" y="610" width="10" height="40" as="geometry" />
        </mxCell>
        <mxCell id="ToeRxbLJHJDghRN0Vl6Y-45" value="асинхронный запрос&lt;br&gt;на обновление, удаление данных" style="edgeStyle=elbowEdgeStyle;rounded=0;orthogonalLoop=1;jettySize=auto;html=1;elbow=vertical;curved=0;dashed=1;" edge="1" parent="ToeRxbLJHJDghRN0Vl6Y-4" target="ToeRxbLJHJDghRN0Vl6Y-43">
          <mxGeometry relative="1" as="geometry">
            <mxPoint x="-195" y="580" as="sourcePoint" />
          </mxGeometry>
        </mxCell>
        <mxCell id="ToeRxbLJHJDghRN0Vl6Y-55" value="" style="html=1;points=[];perimeter=orthogonalPerimeter;outlineConnect=0;targetShapes=umlLifeline;portConstraint=eastwest;newEdgeStyle={&quot;edgeStyle&quot;:&quot;elbowEdgeStyle&quot;,&quot;elbow&quot;:&quot;vertical&quot;,&quot;curved&quot;:0,&quot;rounded&quot;:0};" vertex="1" parent="ToeRxbLJHJDghRN0Vl6Y-4">
          <mxGeometry x="45" y="720" width="10" height="60" as="geometry" />
        </mxCell>
        <mxCell id="ToeRxbLJHJDghRN0Vl6Y-67" value="" style="html=1;points=[];perimeter=orthogonalPerimeter;outlineConnect=0;targetShapes=umlLifeline;portConstraint=eastwest;newEdgeStyle={&quot;edgeStyle&quot;:&quot;elbowEdgeStyle&quot;,&quot;elbow&quot;:&quot;vertical&quot;,&quot;curved&quot;:0,&quot;rounded&quot;:0};" vertex="1" parent="ToeRxbLJHJDghRN0Vl6Y-4">
          <mxGeometry x="45" y="940" width="10" height="30" as="geometry" />
        </mxCell>
        <mxCell id="ToeRxbLJHJDghRN0Vl6Y-6" value="формирование отчета&lt;br&gt;по бизнес-процессам&lt;br&gt;спецодежды" style="edgeStyle=elbowEdgeStyle;rounded=0;orthogonalLoop=1;jettySize=auto;html=1;elbow=vertical;curved=0;" edge="1" parent="1" source="ToeRxbLJHJDghRN0Vl6Y-3" target="ToeRxbLJHJDghRN0Vl6Y-7">
          <mxGeometry relative="1" as="geometry">
            <mxPoint x="155" y="245" as="sourcePoint" />
            <mxPoint x="370" y="240" as="targetPoint" />
            <Array as="points">
              <mxPoint x="350" y="240" />
            </Array>
          </mxGeometry>
        </mxCell>
        <mxCell id="ToeRxbLJHJDghRN0Vl6Y-10" value="запрос данных бизнес-процессов&lt;br&gt;спецодежды" style="edgeStyle=elbowEdgeStyle;rounded=0;orthogonalLoop=1;jettySize=auto;html=1;elbow=vertical;curved=0;" edge="1" parent="1" source="ToeRxbLJHJDghRN0Vl6Y-7" target="ToeRxbLJHJDghRN0Vl6Y-9">
          <mxGeometry relative="1" as="geometry">
            <Array as="points">
              <mxPoint x="530" y="260" />
              <mxPoint x="560" y="250" />
              <mxPoint x="590" y="260" />
              <mxPoint x="620" y="240" />
            </Array>
          </mxGeometry>
        </mxCell>
        <mxCell id="ToeRxbLJHJDghRN0Vl6Y-13" value="данные бизнес-процессов&lt;br&gt;определенного типа&lt;br&gt;(выдачи, списания, поставки)" style="html=1;verticalAlign=bottom;endArrow=open;dashed=1;endSize=8;edgeStyle=elbowEdgeStyle;elbow=vertical;curved=0;rounded=0;" edge="1" parent="1" source="ToeRxbLJHJDghRN0Vl6Y-9" target="ToeRxbLJHJDghRN0Vl6Y-7">
          <mxGeometry x="-0.0417" y="50" relative="1" as="geometry">
            <mxPoint x="630" y="290" as="sourcePoint" />
            <mxPoint x="550" y="290" as="targetPoint" />
            <Array as="points">
              <mxPoint x="590" y="290" />
            </Array>
            <mxPoint as="offset" />
          </mxGeometry>
        </mxCell>
        <mxCell id="ToeRxbLJHJDghRN0Vl6Y-15" value="Представление данных бизнес процесса" style="html=1;verticalAlign=bottom;endArrow=open;dashed=1;endSize=8;edgeStyle=elbowEdgeStyle;elbow=vertical;curved=0;rounded=0;" edge="1" parent="1" source="ToeRxbLJHJDghRN0Vl6Y-7" target="ToeRxbLJHJDghRN0Vl6Y-14">
          <mxGeometry x="-0.0417" y="20" relative="1" as="geometry">
            <mxPoint x="380" y="280" as="sourcePoint" />
            <mxPoint x="165" y="280" as="targetPoint" />
            <Array as="points">
              <mxPoint x="370" y="300" />
              <mxPoint x="350" y="280" />
            </Array>
            <mxPoint as="offset" />
          </mxGeometry>
        </mxCell>
        <mxCell id="ToeRxbLJHJDghRN0Vl6Y-18" value="редактирование, удаление данных&lt;br&gt;о процессе" style="edgeStyle=elbowEdgeStyle;rounded=0;orthogonalLoop=1;jettySize=auto;html=1;elbow=vertical;curved=0;" edge="1" parent="1" source="ToeRxbLJHJDghRN0Vl6Y-14" target="ToeRxbLJHJDghRN0Vl6Y-17">
          <mxGeometry relative="1" as="geometry" />
        </mxCell>
        <mxCell id="ToeRxbLJHJDghRN0Vl6Y-23" value="асинхронный запрос&lt;br&gt;на обновление данных" style="edgeStyle=elbowEdgeStyle;rounded=0;orthogonalLoop=1;jettySize=auto;html=1;elbow=vertical;curved=0;dashed=1;" edge="1" parent="1" source="ToeRxbLJHJDghRN0Vl6Y-17" target="ToeRxbLJHJDghRN0Vl6Y-21">
          <mxGeometry relative="1" as="geometry" />
        </mxCell>
        <mxCell id="ToeRxbLJHJDghRN0Vl6Y-25" style="edgeStyle=elbowEdgeStyle;rounded=0;orthogonalLoop=1;jettySize=auto;html=1;elbow=vertical;curved=0;" edge="1" parent="1" source="ToeRxbLJHJDghRN0Vl6Y-17" target="ToeRxbLJHJDghRN0Vl6Y-24">
          <mxGeometry relative="1" as="geometry">
            <Array as="points">
              <mxPoint x="610" y="460" />
            </Array>
          </mxGeometry>
        </mxCell>
        <mxCell id="ToeRxbLJHJDghRN0Vl6Y-26" value="запрос данных бизнес-процессов&lt;br style=&quot;border-color: var(--border-color);&quot;&gt;спецодежды" style="edgeLabel;html=1;align=center;verticalAlign=middle;resizable=0;points=[];" vertex="1" connectable="0" parent="ToeRxbLJHJDghRN0Vl6Y-25">
          <mxGeometry x="-0.0278" relative="1" as="geometry">
            <mxPoint as="offset" />
          </mxGeometry>
        </mxCell>
        <mxCell id="ToeRxbLJHJDghRN0Vl6Y-27" value="данные бизнес-процессов&lt;br&gt;определенного типа&lt;br&gt;(выдачи, списания, поставки)" style="html=1;verticalAlign=bottom;endArrow=open;dashed=1;endSize=8;edgeStyle=elbowEdgeStyle;elbow=vertical;curved=0;rounded=0;" edge="1" parent="1" source="ToeRxbLJHJDghRN0Vl6Y-24" target="ToeRxbLJHJDghRN0Vl6Y-17">
          <mxGeometry x="-0.0417" y="50" relative="1" as="geometry">
            <mxPoint x="620" y="470" as="sourcePoint" />
            <mxPoint x="410" y="470" as="targetPoint" />
            <Array as="points">
              <mxPoint x="610" y="480" />
              <mxPoint x="565" y="470" />
            </Array>
            <mxPoint as="offset" />
          </mxGeometry>
        </mxCell>
        <mxCell id="ToeRxbLJHJDghRN0Vl6Y-29" value="Представление данных бизнес процесса" style="html=1;verticalAlign=bottom;endArrow=open;dashed=1;endSize=8;edgeStyle=elbowEdgeStyle;elbow=vertical;curved=0;rounded=0;" edge="1" parent="1" source="ToeRxbLJHJDghRN0Vl6Y-17" target="ToeRxbLJHJDghRN0Vl6Y-28">
          <mxGeometry x="-0.0417" y="20" relative="1" as="geometry">
            <mxPoint x="350" y="480" as="sourcePoint" />
            <mxPoint x="170" y="480" as="targetPoint" />
            <Array as="points">
              <mxPoint x="360" y="490" />
              <mxPoint x="325" y="480" />
              <mxPoint x="305" y="460" />
            </Array>
            <mxPoint as="offset" />
          </mxGeometry>
        </mxCell>
        <mxCell id="ToeRxbLJHJDghRN0Vl6Y-47" value="данные спецодежды, поставщика,&lt;br&gt;сотрудника" style="html=1;verticalAlign=bottom;endArrow=open;dashed=1;endSize=8;edgeStyle=elbowEdgeStyle;elbow=vertical;curved=0;rounded=0;" edge="1" parent="1" source="ToeRxbLJHJDghRN0Vl6Y-44" target="ToeRxbLJHJDghRN0Vl6Y-42">
          <mxGeometry x="0.0417" y="30" relative="1" as="geometry">
            <mxPoint x="620" y="770" as="sourcePoint" />
            <mxPoint x="405" y="770" as="targetPoint" />
            <Array as="points">
              <mxPoint x="450" y="780" />
              <mxPoint x="565" y="770" />
            </Array>
            <mxPoint as="offset" />
          </mxGeometry>
        </mxCell>
        <mxCell id="ToeRxbLJHJDghRN0Vl6Y-51" style="edgeStyle=elbowEdgeStyle;rounded=0;orthogonalLoop=1;jettySize=auto;html=1;elbow=vertical;curved=0;" edge="1" parent="1" source="ToeRxbLJHJDghRN0Vl6Y-42" target="ToeRxbLJHJDghRN0Vl6Y-44">
          <mxGeometry relative="1" as="geometry">
            <mxPoint x="415" y="760" as="sourcePoint" />
            <mxPoint x="640" y="760" as="targetPoint" />
            <Array as="points">
              <mxPoint x="620" y="760" />
            </Array>
          </mxGeometry>
        </mxCell>
        <mxCell id="ToeRxbLJHJDghRN0Vl6Y-52" value="запрос данных сущности" style="edgeLabel;html=1;align=center;verticalAlign=middle;resizable=0;points=[];" vertex="1" connectable="0" parent="ToeRxbLJHJDghRN0Vl6Y-51">
          <mxGeometry x="-0.0278" relative="1" as="geometry">
            <mxPoint as="offset" />
          </mxGeometry>
        </mxCell>
        <mxCell id="ToeRxbLJHJDghRN0Vl6Y-53" value="получение данных раздела&lt;br&gt;склад" style="endArrow=classic;html=1;rounded=0;" edge="1" parent="1" source="ToeRxbLJHJDghRN0Vl6Y-3" target="ToeRxbLJHJDghRN0Vl6Y-54">
          <mxGeometry width="50" height="50" relative="1" as="geometry">
            <mxPoint x="310" y="960" as="sourcePoint" />
            <mxPoint x="320" y="870" as="targetPoint" />
            <Array as="points">
              <mxPoint x="290" y="860" />
            </Array>
          </mxGeometry>
        </mxCell>
        <mxCell id="ToeRxbLJHJDghRN0Vl6Y-56" value="запрос данных спецодежды,&lt;br&gt;всех бизнес процессов" style="edgeStyle=elbowEdgeStyle;rounded=0;orthogonalLoop=1;jettySize=auto;html=1;elbow=vertical;curved=0;" edge="1" parent="1" source="ToeRxbLJHJDghRN0Vl6Y-54" target="ToeRxbLJHJDghRN0Vl6Y-55">
          <mxGeometry relative="1" as="geometry">
            <Array as="points">
              <mxPoint x="610" y="870" />
            </Array>
          </mxGeometry>
        </mxCell>
        <mxCell id="ToeRxbLJHJDghRN0Vl6Y-57" value="данные спецодежды, поставщика,&lt;br&gt;сотрудника" style="html=1;verticalAlign=bottom;endArrow=open;dashed=1;endSize=8;edgeStyle=elbowEdgeStyle;elbow=vertical;curved=0;rounded=0;" edge="1" parent="1" source="ToeRxbLJHJDghRN0Vl6Y-55" target="ToeRxbLJHJDghRN0Vl6Y-54">
          <mxGeometry x="0.0417" y="30" relative="1" as="geometry">
            <mxPoint x="600" y="910" as="sourcePoint" />
            <mxPoint x="420" y="890" as="targetPoint" />
            <Array as="points">
              <mxPoint x="460" y="910" />
              <mxPoint x="405" y="910" />
              <mxPoint x="520" y="900" />
            </Array>
            <mxPoint as="offset" />
          </mxGeometry>
        </mxCell>
        <mxCell id="ToeRxbLJHJDghRN0Vl6Y-61" value="представление данных раздела&lt;br&gt;склад" style="html=1;verticalAlign=bottom;endArrow=open;dashed=1;endSize=8;edgeStyle=elbowEdgeStyle;elbow=vertical;curved=0;rounded=0;" edge="1" parent="1" source="ToeRxbLJHJDghRN0Vl6Y-54" target="ToeRxbLJHJDghRN0Vl6Y-60">
          <mxGeometry relative="1" as="geometry">
            <mxPoint x="330" y="990.19" as="sourcePoint" />
            <mxPoint x="250" y="990.19" as="targetPoint" />
          </mxGeometry>
        </mxCell>
        <mxCell id="ToeRxbLJHJDghRN0Vl6Y-65" value="регистрация поставки/&lt;br&gt;списания/выдачи/возврата&lt;br&gt;спецодежды" style="edgeStyle=elbowEdgeStyle;rounded=0;orthogonalLoop=1;jettySize=auto;html=1;elbow=vertical;curved=0;" edge="1" parent="1" source="ToeRxbLJHJDghRN0Vl6Y-60" target="ToeRxbLJHJDghRN0Vl6Y-64">
          <mxGeometry relative="1" as="geometry">
            <Array as="points">
              <mxPoint x="320" y="1040" />
            </Array>
          </mxGeometry>
        </mxCell>
        <mxCell id="ToeRxbLJHJDghRN0Vl6Y-68" value="асинхронное добавление &lt;br&gt;данных в бд" style="edgeStyle=elbowEdgeStyle;rounded=0;orthogonalLoop=1;jettySize=auto;html=1;elbow=vertical;curved=0;dashed=1;" edge="1" parent="1" source="ToeRxbLJHJDghRN0Vl6Y-64" target="ToeRxbLJHJDghRN0Vl6Y-67">
          <mxGeometry x="0.0417" y="-10" relative="1" as="geometry">
            <Array as="points">
              <mxPoint x="580" y="1090" />
            </Array>
            <mxPoint as="offset" />
          </mxGeometry>
        </mxCell>
        <mxCell id="ToeRxbLJHJDghRN0Vl6Y-69" value="представление данных раздела&lt;br&gt;склад" style="html=1;verticalAlign=bottom;endArrow=open;dashed=1;endSize=8;edgeStyle=elbowEdgeStyle;elbow=vertical;curved=0;rounded=0;" edge="1" parent="1" source="ToeRxbLJHJDghRN0Vl6Y-64" target="ToeRxbLJHJDghRN0Vl6Y-60">
          <mxGeometry relative="1" as="geometry">
            <mxPoint x="375" y="1110" as="sourcePoint" />
            <mxPoint x="170" y="1110" as="targetPoint" />
            <Array as="points">
              <mxPoint x="260" y="1110" />
            </Array>
          </mxGeometry>
        </mxCell>
      </root>
    </mxGraphModel>
  </diagram>
</mxfile>
